<svg aria-hidden="true" style="position: absolute; width: 0; height: 0; overflow: hidden;" version="1.1" xmlns="http://www.w3.org/2000/svg" xmlns:xlink="http://www.w3.org/1999/xlink">
<defs>
<symbol id="icon-checkmark" viewBox="0 0 32 32">
<path d="M21.82 13.030l-1.002-1.002c-0.185-0.185-0.484-0.185-0.668 0l-6.014 6.013-2.859-2.882c-0.186-0.185-0.484-0.185-0.67 0l-1.002 1.003c-0.185 0.185-0.185 0.484 0 0.668l4.193 4.223c0.185 0.184 0.484 0.184 0.668 0l7.354-7.354c0.186-0.185 0.186-0.484 0-0.669zM16 3c-7.18 0-13 5.82-13 13s5.82 13 13 13 13-5.82 13-13-5.82-13-13-13zM16 26c-5.522 0-10-4.478-10-10 0-5.523 4.478-10 10-10 5.523 0 10 4.477 10 10 0 5.522-4.477 10-10 10z"></path>
</symbol>
<symbol id="icon-trash" viewBox="0 0 32 32">
<path d="M29.98 6.819c-0.096-1.57-1.387-2.816-2.98-2.816h-3v-1.002c0-1.657-1.344-3-3-3h-10c-1.657 0-3 1.343-3 3v1.001h-3c-1.595 0-2.885 1.246-2.981 2.816h-0.019v2.183c0 1.104 0.896 2 2 2v0 17c0 2.209 1.791 4 4 4h16c2.209 0 4-1.791 4-4v-17c1.104 0 2-0.896 2-2v-2.182h-0.020zM10 3.002c0-0.553 0.447-1 1-1h10c0.553 0 1 0.447 1 1v1h-12v-1zM26 28.002c0 1.102-0.898 2-2 2h-16c-1.103 0-2-0.898-2-2v-17h20v17zM28 8.001v1h-24v-1.999c0-0.553 0.447-1 1-1h22c0.553 0 1 0.447 1 1v0.999zM9 28.006h2c0.553 0 1-0.447 1-1v-13c0-0.553-0.447-1-1-1h-2c-0.553 0-1 0.447-1 1v13c0 0.553 0.447 1 1 1zM9 14.005h2v13h-2v-13zM15 28.006h2c0.553 0 1-0.447 1-1v-13c0-0.553-0.447-1-1-1h-2c-0.553 0-1 0.447-1 1v13c0 0.553 0.447 1 1 1zM15 14.005h2v13h-2v-13zM21 28.006h2c0.553 0 1-0.447 1-1v-13c0-0.553-0.447-1-1-1h-2c-0.553 0-1 0.447-1 1v13c0 0.553 0.447 1 1 1zM21 14.005h2v13h-2v-13z"></path>
</symbol>
<symbol id="icon-add_circle" viewBox="0 0 24 24">
<path d="M17.016 12.984v-1.969h-4.031v-4.031h-1.969v4.031h-4.031v1.969h4.031v4.031h1.969v-4.031h4.031zM12 2.016q4.125 0 7.055 2.93t2.93 7.055-2.93 7.055-7.055 2.93-7.055-2.93-2.93-7.055 2.93-7.055 7.055-2.93z"></path>
</symbol>
<symbol id="icon-add-outline" viewBox="0 0 20 20">
<path d="M11 9h4v2h-4v4h-2v-4h-4v-2h4v-4h2v4zM10 20c-5.523 0-10-4.477-10-10s4.477-10 10-10v0c5.523 0 10 4.477 10 10s-4.477 10-10 10v0zM10 18c4.418 0 8-3.582 8-8s-3.582-8-8-8v0c-4.418 0-8 3.582-8 8s3.582 8 8 8v0z"></path>
</symbol>
</defs>
</svg>
